<?xml version="1.0" encoding="UTF-8" standalone="no"?>
<!-- Created with Inkscape (http://www.inkscape.org/) -->

<svg
   width="68.06337mm"
   height="83.410988mm"
   viewBox="0 0 68.063372 83.410988"
   version="1.1"
   id="svg1"
   xml:space="preserve"
   inkscape:export-filename="logo.svg"
   inkscape:export-xdpi="96"
   inkscape:export-ydpi="96"
   inkscape:version="1.3.2 (091e20e, 2023-11-25)"
   sodipodi:docname="logo.svg"
   xmlns:inkscape="http://www.inkscape.org/namespaces/inkscape"
   xmlns:sodipodi="http://sodipodi.sourceforge.net/DTD/sodipodi-0.dtd"
   xmlns:xlink="http://www.w3.org/1999/xlink"
   xmlns="http://www.w3.org/2000/svg"
   xmlns:svg="http://www.w3.org/2000/svg"><sodipodi:namedview
     id="namedview1"
     pagecolor="#ffffff"
     bordercolor="#000000"
     borderopacity="0.25"
     inkscape:showpageshadow="2"
     inkscape:pageopacity="0.0"
     inkscape:pagecheckerboard="0"
     inkscape:deskcolor="#d1d1d1"
     inkscape:document-units="mm"
     inkscape:zoom="0.69788225"
     inkscape:cx="20.060691"
     inkscape:cy="193.44237"
     inkscape:window-width="2560"
     inkscape:window-height="1387"
     inkscape:window-x="0"
     inkscape:window-y="25"
     inkscape:window-maximized="1"
     inkscape:current-layer="g71" /><defs
     id="defs1"><linearGradient
       id="linearGradient71"
       inkscape:collect="always"><stop
         style="stop-color:#85500b;stop-opacity:1;"
         offset="0"
         id="stop71" /><stop
         style="stop-color:#9b500b;stop-opacity:1;"
         offset="0.68581688"
         id="stop75" /><stop
         style="stop-color:#b26b11;stop-opacity:0.74901961;"
         offset="0.68581688"
         id="stop74" /><stop
         style="stop-color:#f4971b;stop-opacity:0.49803922;"
         offset="0.81687611"
         id="stop73" /><stop
         style="stop-color:#b78a3c;stop-opacity:1;"
         offset="1"
         id="stop72" /></linearGradient><linearGradient
       inkscape:collect="always"
       xlink:href="#linearGradient71"
       id="linearGradient72"
       x1="-11.594315"
       y1="143.57158"
       x2="214.39944"
       y2="143.57158"
       gradientUnits="userSpaceOnUse" /></defs><g
     inkscape:label="Layer 1"
     inkscape:groupmode="layer"
     id="layer1"
     transform="translate(-146.33608,-101.86609)"><g
       id="g71"><path
         style="fill:url(#linearGradient72)"
         d="m 147.76211,185.00996 c -0.31894,-0.12847 -0.77027,-0.52414 -1.00296,-0.87927 l -0.42307,-0.6457 0.0959,-26.55447 0.0959,-11.20865 0.44926,-17.19791 c 0.12847,-4.91788 2.80206,-8.60746 5.3373,-12.43542 l 1.40186,-2.11666 2.29473,-2.31221 2.29473,-2.3122 2.35799,-1.57724 c 3.77263,-2.52347 7.73715,-4.18313 12.41684,-5.19804 l 1.98437,-0.43036 3.97586,-0.13787 3.97585,-0.13787 2.77102,0.46067 c 5.20866,0.86592 9.75569,2.62436 13.87639,5.36632 l 2.6387,1.75581 2.08167,1.98882 c 1.14492,1.09384 2.7894,2.92804 3.65441,4.076 l 1.57274,2.08718 1.30225,2.68341 c 2.26661,4.67057 3.37027,8.98554 3.46096,13.53133 0.0261,1.30968 0.0325,13.07626 0.0142,26.14795 l -0.0334,23.76671 -0.7734,0.77339 -0.7734,0.7734 -32.23337,-0.0168 -32.23337,-0.0168 z m 63.30941,-3.27001 c 0.22242,-0.57961 0.29052,-13.47033 0.0745,-14.09622 l -0.19598,-0.56774 -3.0561,-2.17974 -3.0561,-2.17975 -3.57644,-3.66867 c -4.39119,-4.50443 -4.31892,-4.48732 -4.87929,-1.15512 -0.1713,1.01864 -0.5536,2.35778 -0.84956,2.97585 l -0.5381,1.12377 -1.06815,0.91431 -1.06816,0.9143 0.14842,0.34318 c 0.0816,0.18874 1.35618,1.71239 2.83233,3.38588 1.47616,1.67349 2.79861,3.25283 2.93879,3.50965 l 0.25486,0.46695 -0.45661,0.17522 -0.45661,0.17522 -1.89733,-1.01606 -1.89732,-1.01606 -0.4356,0.16715 c -0.23958,0.0919 -0.43559,0.34948 -0.43559,0.57233 v 0.40518 h -0.3565 c -0.84892,0 -6.99563,-5.88562 -7.65263,-7.32757 l -0.2868,-0.62947 0.42106,-0.42107 c 0.23159,-0.23158 1.166,-0.67367 2.07647,-0.98241 l 1.65541,-0.56135 0.26953,-0.43976 0.26953,-0.43976 -1.1746,-1.49197 c -0.64603,-0.82057 -2.72641,-3.59924 -4.62306,-6.17482 -4.06749,-5.52347 -3.51257,-5.37089 -5.81196,-1.5981 -2.37047,3.88942 -2.51197,4.0585 -5.39075,6.44121 -2.45312,2.03039 -2.73413,2.40651 -2.0066,2.68569 l 0.40785,0.1565 1.49238,-0.5711 c 0.8208,-0.3141 2.36451,-1.10058 3.43045,-1.74773 1.06594,-0.64715 2.23379,-1.25085 2.59522,-1.34156 l 0.65715,-0.16494 0.16861,0.4394 0.16862,0.43941 -1.49674,3.91687 -1.49674,3.91688 0.28472,0.74889 c 0.1566,0.41189 0.8149,1.49185 1.46289,2.39992 l 1.17815,1.65104 v 0.68019 0.6802 l -0.59531,0.002 -0.59531,0.002 -2.51354,-2.64977 c -3.01522,-3.17862 -2.3582,-3.17862 -5.12034,0 l -2.29916,2.64584 h -0.37568 c -0.62541,0 -0.64726,-0.32466 -0.16061,-2.38667 0.25688,-1.08843 0.54068,-2.7879 0.63068,-3.7766 l 0.16363,-1.79764 -0.40879,-0.15687 -0.4088,-0.15687 -1.23599,0.87243 c -3.69293,2.6067 -6.12182,4.11675 -8.15194,5.0681 l -2.2669,1.0623 -0.2635,-0.2635 -0.2635,-0.2635 0.16244,-0.51182 c 0.15727,-0.49549 3.73996,-4.14746 5.79269,-5.90469 1.10009,-0.94172 1.99906,-2.50843 1.84016,-3.207 l -0.10056,-0.44212 -1.65926,-0.86029 -1.65926,-0.86028 -0.43082,0.16531 c -0.23695,0.0909 -1.07382,1.0342 -1.85973,2.09616 -1.74728,2.36103 -4.81175,5.29265 -6.33096,6.05651 -0.61935,0.3114 -1.33445,0.74936 -1.58912,0.97324 l -0.46302,0.40706 v 7.19094 c 0,3.95501 0.0794,7.27031 0.17639,7.36732 0.097,0.097 13.912,0.17639 30.69997,0.17639 h 30.52358 z m 0.10873,-18.75401 c -1.5e-4,-0.32743 0.01,-7.67953 0.0223,-16.33802 l 0.0226,-15.74271 -0.65746,-2.53606 c -2.78422,-10.73966 -9.68531,-18.1348 -20.21553,-21.66275 l -2.42666,-0.813 -2.59384,-0.39097 c -1.42661,-0.21504 -3.78446,-0.3912 -5.23967,-0.39147 l -2.64584,-5e-4 -2.42665,0.39358 c -12.74252,2.06668 -21.723,10.42346 -24.88016,23.15221 l -0.42657,1.71979 -0.10524,15.80886 c -0.0579,8.69487 -0.0323,15.80885 0.057,15.80885 0.26089,0 4.9643,-3.82628 5.68897,-4.62805 0.3638,-0.40251 1.46818,-1.43086 2.45419,-2.28522 l 1.79273,-1.5534 h 0.53821 0.53821 l 1.37322,1.28651 c 1.37259,1.28592 2.27233,1.88849 2.81979,1.88849 0.43266,0 11.18314,-10.45399 12.72009,-12.36927 l 1.32699,-1.65364 h 0.49677 0.49677 l 1.04198,1.25677 c 0.5731,0.69122 2.45826,3.15706 4.18926,5.47965 1.731,2.32258 3.57637,4.67395 4.10082,5.22526 l 0.95355,1.00239 1.2196,-0.36704 c 0.67077,-0.20188 2.14783,-0.93194 3.28235,-1.62237 1.13452,-0.69043 2.39568,-1.44788 2.80258,-1.68323 l 0.73981,-0.42789 2.69977,2.89034 c 4.90709,5.2535 10.24065,9.70827 10.2401,8.55289 z m -22.12973,-14.55209 c -0.71759,-0.76398 -2.71301,-3.13833 -4.43428,-5.27633 l -3.12959,-3.88728 -0.69732,-0.23668 -0.69733,-0.23668 -0.85712,0.2282 -0.85712,0.22819 -4.2376,4.22649 -4.2376,4.22649 h -0.51743 -0.51742 l -0.40713,-1.37094 -0.40712,-1.37094 v -2.04077 -2.04078 l 0.53162,-1.72118 0.53162,-1.72119 1.07484,-1.60959 c 1.76548,-2.64383 3.93636,-4.22083 7.10421,-5.16073 l 1.43708,-0.42638 h 1.90849 1.90848 l 1.7006,0.52526 1.7006,0.52526 1.58315,1.02325 c 1.94141,1.25479 3.02225,2.52302 4.2081,4.93769 l 0.90957,1.85208 0.30107,1.88052 0.30107,1.88051 -0.40341,1.95594 c -0.22188,1.07577 -0.6618,2.64056 -0.9776,3.4773 l -0.57418,1.52136 h -0.47178 -0.47178 z M 155.14179,146.595 c -1.17598,-1.17598 -0.2567,-1.66613 4.32043,-2.30365 4.81672,-0.67088 4.54256,-0.66841 4.87681,-0.0438 0.68278,1.27578 0.23773,1.47733 -4.73467,2.14427 -4.57898,0.61417 -4.0746,0.5912 -4.46257,0.20323 z m 45.19083,-0.25555 -3.57187,-0.51002 -0.36504,-0.36211 -0.36503,-0.36212 0.17164,-0.68385 0.17163,-0.68385 0.45798,-0.001 c 3.25048,-0.01 8.79236,1.31207 8.79236,2.09756 0,1.19405 -0.28252,1.22106 -5.29167,0.5058 z m -41.47063,-8.91328 -4.82583,-1.49388 -0.46135,-0.46798 -0.46134,-0.46799 0.29284,-0.45805 0.29284,-0.45806 0.76101,0.0229 c 0.41855,0.0126 2.78507,0.64219 5.25892,1.39907 2.47386,0.75688 4.70019,1.43726 4.9474,1.51196 0.24722,0.0747 0.52495,0.37357 0.61718,0.66415 l 0.16768,0.52833 -0.31884,0.38418 c -0.4707,0.56717 -0.98404,0.47182 -6.27051,-1.16465 z m 37.02563,1.23133 c -0.41256,-0.41256 -0.40596,-1.13825 0.0132,-1.45555 0.44909,-0.33993 9.86843,-3.25403 10.51812,-3.25403 h 0.51815 l 0.17088,0.68083 0.17088,0.68083 -0.2558,0.25579 c -0.25267,0.25267 -10.00258,3.4053 -10.54015,3.40816 -0.15279,8.1e-4 -0.42068,-0.1414 -0.59531,-0.31603 z m -30.6719,-7.81844 c -8.71244,-7.59203 -8.93285,-7.83009 -8.01696,-8.65896 l 0.52239,-0.47276 0.60209,0.39837 c 1.25325,0.82921 10.78855,9.51061 10.78855,9.82243 0,0.46788 -0.55903,0.96144 -1.08897,0.96144 h -0.45398 z m 27.11326,1.7683 c -0.25467,-0.15028 -0.46302,-0.47936 -0.46302,-0.73129 v -0.45806 l 4.52585,-3.96057 c 2.48921,-2.17831 5.00268,-4.34467 5.58548,-4.81413 l 1.05962,-0.85356 0.49994,0.26756 0.49994,0.26756 v 0.52359 0.52358 l -0.8599,0.79658 c -2.52556,2.3396 -9.81732,8.5973 -10.07977,8.65033 -0.16782,0.0339 -0.51348,-0.0613 -0.76814,-0.21159 z m -19.31692,-4.28184 c -0.23881,-0.1819 -1.88286,-3.51641 -3.65343,-7.41003 l -3.21923,-7.0793 0.33907,-0.40856 0.33907,-0.40855 0.63198,0.0795 0.63198,0.0795 3.11541,6.87916 c 1.71348,3.78354 3.1904,7.08408 3.28203,7.33453 l 0.16662,0.45537 -0.40454,0.40453 c -0.4906,0.4906 -0.66779,0.50124 -1.22896,0.0738 z m 13.61515,0.0132 c -0.17463,-0.17462 -0.3175,-0.51189 -0.3175,-0.74949 0,-0.49258 5.70174,-13.68425 6.14603,-14.21959 l 0.29096,-0.35059 0.68185,0.0795 0.68184,0.0795 0.0779,0.41132 c 0.0839,0.44312 -5.71339,13.97391 -6.27923,14.6557 -0.40875,0.49251 -0.85062,0.52478 -1.2818,0.0936 z m -7.04938,-1.85804 -0.41187,-0.58804 v -7.76373 -7.76373 l 0.27389,-0.51177 0.27389,-0.51177 h 0.48746 c 0.2681,0 0.61491,0.15357 0.77069,0.34127 l 0.28323,0.34127 0.0425,8.12977 0.0425,8.12977 -0.32575,0.3925 c -0.46067,0.55507 -0.95827,0.48734 -1.43658,-0.19554 z"
         id="path1"
         sodipodi:nodetypes="cscccsscccsscccsscsscsscccccccsscccsssccccssccccccscsscsscccssssscssscccccsscccccsscssscccsscccssscccsssscssscssccsscsscsscsssscccssscccssscssscssssscccccccccccccccsscccccsscccsscccssscssscccccccsccccccccsssscsscssscccsssssscssscssscsscccccssscscccccsscscccsscccssccccccccsscccscc" /></g></g></svg>
